<svg xmlns="http://www.w3.org/2000/svg" width="18" height="18" viewBox="0 0 18 18">
    <g fill="none" fill-rule="evenodd">
        <g fill="#FF9500">
            <g>
                <g>
                    <g>
                        <g>
                            <g>
                                <g>
                                    <g>
                                        <path d="M9.388 15.19l-4.415 2.321c-.38.2-.85.054-1.05-.326-.08-.151-.107-.325-.078-.493l.843-4.917c.043-.252-.04-.51-.224-.688L.892 7.605c-.307-.3-.314-.792-.014-1.1.12-.122.276-.202.445-.226L6.26 5.56c.253-.036.472-.195.585-.425L9.053.663c.135-.274.41-.433.697-.434.116 0 .233.026.344.08.153.076.278.2.353.354l2.208 4.473c.113.23.332.389.585.425l4.937.718c.425.062.72.456.658.881-.025.17-.105.326-.227.445l-3.572 3.482c-.183.179-.267.436-.224.688l.843 4.917c.073.423-.211.825-.635.898-.168.029-.341.001-.493-.079l-4.415-2.32c-.113-.06-.238-.09-.362-.09s-.249.03-.362.09z" transform="translate(-1092 -362) translate(535 298) translate(15 57) translate(515 7) translate(26) translate(.25)"/>
                                    </g>
                                </g>
                            </g>
                        </g>
                    </g>
                </g>
            </g>
        </g>
    </g>
</svg>
